<?xml version="1.0" encoding="iso-8859-1"?>
<!-- Generator: Adobe Illustrator 19.0.0, SVG Export Plug-In . SVG Version: 6.00 Build 0)  -->
<svg version="1.1" id="Layer_1" xmlns="http://www.w3.org/2000/svg" xmlns:xlink="http://www.w3.org/1999/xlink" x="0px" y="0px"
	 viewBox="0 0 512 512" style="enable-background:new 0 0 512 512;" xml:space="preserve">
<path style="fill:#EA5A20;" d="M492.663,19.326L386.885,148.212l15.406,15.406c0,0,75.482-75.482,90.372-90.372
	C507.552,58.356,507.552,34.215,492.663,19.326z"/>
<path style="fill:#F77A20;" d="M492.663,19.326c-14.889-14.889-39.03-14.889-53.919,0c-14.89,14.889-90.372,90.372-90.372,90.372
	l38.514,38.514c0,0,75.482-75.482,90.372-90.372C492.146,42.95,499.044,25.707,492.663,19.326z"/>
<path style="fill:#9EF3D3;" d="M367.627,128.955L8.17,503.819l109.425-87.808c11.28,3.442,24.026,0.574,33.03-8.432L398.44,159.767
	L367.627,128.955z"/>
<path style="fill:#C7FFEA;" d="M352.222,113.55L104.409,361.362c-9.005,9.005-11.874,21.75-8.432,33.03L8.17,503.819l367.16-367.16
	L352.222,113.55z"/>
<path d="M229.214,282.775c-3.192-3.191-8.364-3.191-11.555,0l-95.184,95.185c-3.191,3.191-3.191,8.364,0,11.554
	c1.596,1.595,3.687,2.393,5.778,2.393c2.09,0,4.182-0.797,5.778-2.393l95.184-95.184
	C232.404,291.139,232.404,285.965,229.214,282.775z"/>
<path d="M512,46.286c0-12.366-4.816-23.993-13.56-32.737c-18.051-18.05-47.422-18.05-65.475,0L348.37,98.143l-6.547-6.547
	c-3.192-3.191-8.364-3.191-11.555,0c-3.191,3.191-3.191,8.364,0,11.554l10.399,10.399L98.633,355.586
	c-9.806,9.805-14.035,23.581-11.543,36.829L1.798,498.705c-2.609,3.251-2.352,7.944,0.595,10.89c1.587,1.587,3.679,2.393,5.78,2.393
	c1.802,0,3.61-0.594,5.111-1.797l106.29-85.292c13.25,2.492,27.022-1.736,36.83-11.542L398.44,171.321l10.398,10.398
	c1.596,1.595,3.687,2.393,5.778,2.393c2.09,0,4.182-0.797,5.778-2.393c3.191-3.191,3.191-8.364,0-11.555l-6.547-6.547l84.595-84.595
	C507.184,70.279,512,58.652,512,46.286z M144.848,401.802c-6.606,6.608-16.134,9.059-24.868,6.394
	c-2.586-0.789-5.392-0.248-7.499,1.442l-51.288,41.156l41.156-51.288c1.691-2.107,2.231-4.914,1.442-7.498
	c-2.665-8.731-0.215-18.261,6.394-24.869l242.035-242.036l34.663,34.662L144.848,401.802z M486.886,67.468l-84.595,84.594
	l-42.366-42.365l84.593-84.595c11.682-11.679,30.687-11.68,42.367,0C498.566,36.784,498.566,55.788,486.886,67.468z"/>
<g>
</g>
<g>
</g>
<g>
</g>
<g>
</g>
<g>
</g>
<g>
</g>
<g>
</g>
<g>
</g>
<g>
</g>
<g>
</g>
<g>
</g>
<g>
</g>
<g>
</g>
<g>
</g>
<g>
</g>
</svg>
